<svg xmlns="http://www.w3.org/2000/svg" viewBox="0 0 16 16" fill="currentColor">
  <path d="M8 1c-1.7 0-2.5 1.5-2.5 3 0 .9.2 1.5.4 2-.7.4-1.4 1.2-1.9 2.2C3.4 9.4 3 10.7 3 12c0 1.3.5 2 1.4 2.5.6.3 1.3.4 2 .5.4 0 .8.1 1.2.3.5.3.8.7.9.7.3 0 .4-.3.5-.5.1.1.2.3.4.3.2 0 .3-.2.4-.4 0 .1.1.3.3.3.2 0 .3-.2.4-.4.1.2.2.4.4.4.2 0 .4-.2.5-.4.1.2.2.4.4.4.2 0 .3-.2.4-.4.1.1.2.2.3.2.1 0 .2-.1.2-.2 0-.1.1-.2.1-.3 0-.2-.2-.4-.4-.5.4-.2.7-.5.8-1 .1-.3.1-.6.1-.9 0-1.3-.4-2.6-1-3.8-.5-1-1.2-1.8-1.9-2.2.2-.5.4-1.1.4-2C10.5 2.5 9.7 1 8 1ZM6.5 5a.5.5 0 1 1 0 1 .5.5 0 0 1 0-1Zm3 0a.5.5 0 1 1 0 1 .5.5 0 0 1 0-1Z"/>
</svg>
